<?xml version="1.0" encoding="utf-8"?>
<!-- Generator: Adobe Illustrator 19.1.0, SVG Export Plug-In . SVG Version: 6.00 Build 0)  -->
<svg version="1.1" id="Capa_1" xmlns="http://www.w3.org/2000/svg" xmlns:xlink="http://www.w3.org/1999/xlink" x="0px" y="0px"
	 viewBox="0 0 100 100" style="enable-background:new 0 0 100 100;" xml:space="preserve">
<style type="text/css">
	.st0{fill-rule:evenodd;clip-rule:evenodd;fill:#575756;}
</style>
<g>
	<g>
		<path class="st0" d="M71.2,28.8c8.7,10.8-17,28-16.3-1.3c0,0.3-5.8,5.1-5.8,5.1l-5.8-5c2,29.3-25.1,12.9-15.6,0.9
			C-6.1,38.7-4.5,63.5,19.8,72c0,0-4.7-6.3,0-10.9c6.5-3.5,13,4,12.9,4c7.7-12.5,16.6,8.1,16.6,8.1s10.3-21.9,17.1-8.4
			c0,0,8.7-8.5,13.7-2.8c4.2,4.3-1,10.8-1,10.6C106.9,58.7,101.7,37.7,71.2,28.8z"/>
	</g>
</g>
</svg>
