<?xml version="1.0" encoding="utf-8"?>
<!-- Generator: Adobe Illustrator 19.1.0, SVG Export Plug-In . SVG Version: 6.00 Build 0)  -->
<svg version="1.1" id="Capa_1" xmlns="http://www.w3.org/2000/svg" xmlns:xlink="http://www.w3.org/1999/xlink" x="0px" y="0px"
	 viewBox="0 0 100 100" style="enable-background:new 0 0 100 100;" xml:space="preserve">
<style type="text/css">
	.st0{fill-rule:evenodd;clip-rule:evenodd;fill:#575756;}
</style>
<path class="st0" d="M81.5,79.3h-8.9v7.1c0,5.1-4.5,9.2-9.6,9.2H29.1c-5.1,0-9.2-4.1-9.2-9.2V36.9h9.8v48.9h6.5l0-48.9
	c1.7,1.3,4.4,2.2,6.6,2.7v46.2h6.5v-46c2.4-0.4,4.7-1.3,6.6-2.6v48.7h6.5V36.9h9.8h9.1c4.1,0,7.3,3.3,7.3,7.4V72
	C88.9,76,85.6,79.3,81.5,79.3z M82.3,43.3h-9.7v29.5h9.7V43.3z M66.6,33.8c-3.2,0-6.1-1.3-8.3-3.3c-2.7,3.8-7,6.2-12,6.2
	c-4.8,0-9-2.3-11.7-5.9c-2.1,2-4.9,3.2-8.1,3.2c-5.8,0-10.6-4.1-11.7-9.5c-1.8-1.1-2.9-3.1-2.9-5.4c0-3.6,2.9-6.4,6.4-6.4
	c0.3,0,0.5,0.1,0.8,0.1c2-1.6,4.5-2.6,7.2-2.6c1.2-3.6,4.6-6.3,8.7-6.3c3.1,0,5.9,1.6,7.5,3.9c1.2-0.3,2.5-0.5,3.8-0.5
	c1.4,0,2.7,0.2,3.9,0.6c1.7-2.4,4.4-4,7.6-4c4,0,7.3,2.5,8.6,6c0.1,0,0.1,0,0.2,0c6.6,0,11.9,5.3,11.9,11.9
	C78.6,28.5,73.2,33.8,66.6,33.8z"/>
</svg>
