<?xml version="1.0" encoding="utf-8"?>
<!-- Generator: Adobe Illustrator 19.1.0, SVG Export Plug-In . SVG Version: 6.00 Build 0)  -->
<svg version="1.1" id="Capa_1" xmlns="http://www.w3.org/2000/svg" xmlns:xlink="http://www.w3.org/1999/xlink" x="0px" y="0px"
	 viewBox="0 0 130 130" style="enable-background:new 0 0 130 130;" xml:space="preserve">
<style type="text/css">
	.st0{fill-rule:evenodd;clip-rule:evenodd;fill:#575756;}
</style>
<g>
	<g>
		<path class="st0" d="M66.8,6C46.1,6,35.2,22.3,35.2,37.2c0,16.7,15.5,27.2,15.5,54.5h15.7c0,0,14.8,0.1,15.2,0.1
			c0.5-27.5,15.7-38.3,15.7-54.7C97.4,23.1,87.6,6,66.8,6z M54.7,111.1c0,0,0,1.7,0,3.9c0,2.1,1.7,3.9,3.9,3.9h15.4
			c2.1,0,3.9-1.7,3.9-3.9c0-2.1-0.2-3.9-0.2-3.9H54.7z M79.7,95.7h-27c-1.1,0-1.9,0.9-1.9,1.9c0,1.1,0.9,1.9,1.9,1.9h27
			c1.1,0,1.9-0.9,1.9-1.9C81.7,96.5,80.8,95.7,79.7,95.7z M79.7,103.4h-27c-1.1,0-1.9,0.9-1.9,1.9c0,1.1,0.9,1.9,1.9,1.9h27
			c1.1,0,1.9-0.9,1.9-1.9C81.7,104.3,80.8,103.4,79.7,103.4z"/>
	</g>
</g>
</svg>
