<?xml version="1.0" encoding="utf-8"?>
<!-- Generator: Adobe Illustrator 19.1.0, SVG Export Plug-In . SVG Version: 6.00 Build 0)  -->
<svg version="1.1" id="Capa_1" xmlns="http://www.w3.org/2000/svg" xmlns:xlink="http://www.w3.org/1999/xlink" x="0px" y="0px"
	 viewBox="0 0 100 100" style="enable-background:new 0 0 100 100;" xml:space="preserve">
<style type="text/css">
	.st0{fill-rule:evenodd;clip-rule:evenodd;fill:#575756;}
</style>
<path class="st0" d="M84.6,51.6l-15.4-6.2V33.1l15.4-6.2c1.7,0,3.1,1.4,3.1,3.1v18.5C87.6,50.2,86.3,51.6,84.6,51.6z M55.3,30
	c-7.6,0-13.8-6.2-13.8-13.9c0-7.7,6.2-13.9,13.8-13.9c7.6,0,13.8,6.2,13.8,13.9C69.2,23.8,63,30,55.3,30z M27.7,30
	c-7.6,0-13.8-6.2-13.8-13.9c0-7.7,6.2-13.9,13.8-13.9c7.6,0,13.8,6.2,13.8,13.9C41.5,23.8,35.3,30,27.7,30z M66.1,30v27.7H48.9
	c-0.2,2.6-1.3,4.8-2.9,6h1.7L60,91.5h-3.1l-4.1-9.2h-8.2v15.4h-3.1V82.2h-8.3l-4.1,9.2h-3.1l12.5-27.7h1.2c-1.7-1.2-2.8-3.5-2.9-6
	H16.9V30h10.8h27.7H66.1z M41.6,64.7c-0.1,0-0.2-0.1-0.4-0.1l-6.6,14.6h6.9V64.7z M44.7,64.5v14.6h6.8L45,64.4
	C44.9,64.4,44.8,64.5,44.7,64.5z"/>
</svg>
