<?xml version="1.0" encoding="utf-8"?>
<!-- Generator: Adobe Illustrator 19.1.0, SVG Export Plug-In . SVG Version: 6.00 Build 0)  -->
<svg version="1.1" id="Capa_1" xmlns="http://www.w3.org/2000/svg" xmlns:xlink="http://www.w3.org/1999/xlink" x="0px" y="0px"
	 viewBox="0 0 100 100" style="enable-background:new 0 0 100 100;" xml:space="preserve">
<style type="text/css">
	.st0{fill-rule:evenodd;clip-rule:evenodd;fill:#575756;}
</style>
<g>
	<g>
		<path class="st0" d="M69.3,16.9c-4,0-11.9,5.7-18.5,5.7c-6.6,0-14.9-5.7-18.5-5.7c-24.4,0-38.4,65.7-20.2,65.7
			c15.4,0,17.5-19.2,38.6-19.2c17.1,0,27.1,19,38.5,19C107.4,82.4,93.7,16.9,69.3,16.9z M30.8,53.9c-7.1,0-12.8-5.7-12.8-12.8
			c0-7.1,5.7-12.8,12.8-12.8c7.1,0,12.8,5.7,12.8,12.8C43.6,48.2,37.9,53.9,30.8,53.9z M64.8,46.8c-1.6,0-2.8-1.3-2.8-2.8
			c0-1.6,1.3-2.8,2.8-2.8c1.6,0,2.8,1.3,2.8,2.8C67.7,45.5,66.4,46.8,64.8,46.8z M73.5,55.4c-1.6,0-2.8-1.3-2.8-2.8
			c0-1.6,1.3-2.8,2.8-2.8c1.6,0,2.8,1.3,2.8,2.8C76.4,54.1,75.1,55.4,73.5,55.4z M73.5,38.3c-1.6,0-2.8-1.3-2.8-2.8
			c0-1.6,1.3-2.8,2.8-2.8c1.6,0,2.8,1.3,2.8,2.8C76.4,37,75.1,38.3,73.5,38.3z M82.1,46.8c-1.6,0-2.8-1.3-2.8-2.8
			c0-1.6,1.3-2.8,2.8-2.8c1.6,0,2.8,1.3,2.8,2.8C84.9,45.5,83.6,46.8,82.1,46.8z M30.8,34c-3.9,0-7.1,3.2-7.1,7.1
			c0,3.9,3.2,7.1,7.1,7.1c3.9,0,7.1-3.2,7.1-7.1C37.9,37.2,34.8,34,30.8,34z"/>
	</g>
</g>
</svg>
