<?xml version="1.0" encoding="utf-8"?>
<!-- Generator: Adobe Illustrator 19.1.0, SVG Export Plug-In . SVG Version: 6.00 Build 0)  -->
<svg version="1.1" id="Capa_1" xmlns="http://www.w3.org/2000/svg" xmlns:xlink="http://www.w3.org/1999/xlink" x="0px" y="0px"
	 viewBox="0 0 100 100" style="enable-background:new 0 0 100 100;" xml:space="preserve">
<style type="text/css">
	.st0{fill-rule:evenodd;clip-rule:evenodd;fill:#575756;}
</style>
<g>
	<g>
		<path class="st0" d="M43.6,29.4h12.5v-4.7H43.6V29.4z M56,31H43.6c0,0-20.4,20.1-20.4,39.8c0,20.9,21.4,22.5,21.4,22.5
			s6.4,1.1,10.3,0c0,0,21.7-2.5,21.7-22.4C76.6,51,56,31,56,31z M57,73.3c-0.5,1-1.2,1.9-2,2.5c-0.9,0.7-1.9,1.2-3,1.5
			c-0.1,0-0.3,0.1-0.5,0.1v3.4h-3.1v-3.1c0,0-0.1,0-0.1,0c-0.9,0-1.7-0.1-2.5-0.2c-0.8-0.1-1.4-0.3-2-0.5c-0.6-0.2-1.1-0.4-1.5-0.6
			c-0.4-0.2-0.7-0.4-0.8-0.6c-0.2-0.2-0.3-0.4-0.4-0.7C41,74.9,41,74.4,41,73.8c0-0.4,0-0.8,0-1c0-0.3,0.1-0.5,0.1-0.7
			c0.1-0.2,0.1-0.3,0.2-0.4c0.1-0.1,0.2-0.1,0.3-0.1c0.2,0,0.4,0.1,0.8,0.3c0.3,0.2,0.8,0.5,1.3,0.7s1.2,0.5,1.9,0.7
			c0.7,0.2,1.6,0.3,2.5,0.3c0.6,0,1.2-0.1,1.7-0.2c0.5-0.2,0.9-0.4,1.3-0.6c0.3-0.3,0.6-0.6,0.8-1c0.2-0.4,0.3-0.9,0.3-1.4
			c0-0.6-0.2-1.1-0.5-1.5c-0.3-0.4-0.7-0.8-1.2-1.1c-0.5-0.3-1.1-0.6-1.7-0.9c-0.7-0.3-1.3-0.6-2-0.9c-0.7-0.3-1.4-0.7-2-1.1
			c-0.7-0.4-1.2-0.9-1.7-1.4c-0.5-0.6-0.9-1.2-1.2-2c-0.3-0.8-0.5-1.7-0.5-2.8c0-1.2,0.2-2.3,0.7-3.2c0.5-0.9,1.1-1.7,1.8-2.3
			c0.8-0.6,1.7-1.1,2.7-1.4c0.5-0.2,1.1-0.3,1.7-0.3v-3.3h3.1v3.3c0.1,0,0.2,0,0.4,0c0.6,0.1,1.2,0.2,1.7,0.4c0.5,0.2,1,0.3,1.4,0.5
			c0.4,0.2,0.7,0.4,0.8,0.5c0.1,0.1,0.2,0.2,0.3,0.3c0,0.1,0.1,0.2,0.1,0.4c0,0.2,0.1,0.3,0.1,0.6c0,0.2,0,0.5,0,0.9
			c0,0.4,0,0.7,0,1c0,0.3-0.1,0.5-0.1,0.7c0,0.2-0.1,0.3-0.2,0.4c-0.1,0.1-0.2,0.1-0.3,0.1c-0.1,0-0.4-0.1-0.7-0.3
			c-0.3-0.2-0.7-0.4-1.2-0.6c-0.5-0.2-1-0.4-1.6-0.6c-0.6-0.2-1.3-0.3-2-0.3c-0.6,0-1.1,0.1-1.5,0.2c-0.4,0.1-0.8,0.3-1.1,0.6
			c-0.3,0.2-0.5,0.5-0.6,0.9c-0.1,0.3-0.2,0.7-0.2,1.1c0,0.6,0.2,1.1,0.5,1.5c0.3,0.4,0.7,0.8,1.2,1.1c0.5,0.3,1.1,0.6,1.8,0.9
			c0.7,0.3,1.3,0.6,2,0.9c0.7,0.3,1.4,0.7,2,1.1c0.7,0.4,1.2,0.9,1.8,1.4c0.5,0.6,0.9,1.2,1.2,2c0.3,0.8,0.5,1.7,0.5,2.7
			C57.7,71.1,57.5,72.3,57,73.3z M55.9,23.2l6.3-15.6c0,0-4,3.3-6.3,3.3c-2.3,0-6.1-3.2-6.1-3.2s-4,3.2-6.3,3.2
			c-2.3,0-6.1-3.1-6.1-3.1l6.4,15.4H55.9z"/>
	</g>
</g>
</svg>
