<?xml version="1.0" encoding="utf-8"?>
<!-- Generator: Adobe Illustrator 19.1.0, SVG Export Plug-In . SVG Version: 6.00 Build 0)  -->
<svg version="1.1" id="Capa_1" xmlns="http://www.w3.org/2000/svg" xmlns:xlink="http://www.w3.org/1999/xlink" x="0px" y="0px"
	 viewBox="0 0 100 100" style="enable-background:new 0 0 100 100;" xml:space="preserve">
<style type="text/css">
	.st0{fill-rule:evenodd;clip-rule:evenodd;fill:#575756;}
</style>
<path class="st0" d="M79.6,90.7v-6.8h-0.1c0-0.6,0.1-1.1,0.1-1.7v-29v-8.5c0-16-13-29-29-29c-16,0-29,13-29,29v8.5v29
	c0,0.6,0.1,1.1,0.1,1.7h-0.1v6.8c0,0-17-0.3-17-18.7c0-10.5,5.5-15.1,10.2-17.1V44.7c0-19.8,16-35.8,35.8-35.8
	c19.8,0,35.8,16,35.8,35.8v10.1c4.7,2,10.2,6.6,10.2,17.1C96.7,90.4,79.6,90.7,79.6,90.7z M28.5,90.7h-3.4V53.2h3.4V90.7z
	 M76.2,90.7h-3.4V53.2h3.4V90.7z"/>
</svg>
