<?xml version="1.0" encoding="utf-8"?>
<!-- Generator: Adobe Illustrator 19.1.0, SVG Export Plug-In . SVG Version: 6.00 Build 0)  -->
<svg version="1.1" id="Capa_1" xmlns="http://www.w3.org/2000/svg" xmlns:xlink="http://www.w3.org/1999/xlink" x="0px" y="0px"
	 viewBox="0 0 130 130" style="enable-background:new 0 0 130 130;" xml:space="preserve">
<style type="text/css">
	.st0{fill:#575756;}
</style>
<g>
	<g>
		<path class="st0" d="M86.1,65.3l18.9-31.2L92.4,15.7L68.5,57.6C79,58.5,86.1,65.3,86.1,65.3z M80.6,33.7l10.6-18.5H38.9l10.8,18.5
			H80.6z M65.1,58.4c-17.1,0-30.9,13.8-30.9,30.9c0,17.1,13.8,30.9,30.9,30.9c17.1,0,30.9-13.8,30.9-30.9
			C96,72.3,82.1,58.4,65.1,58.4z M65.1,115.7c-14.4,0-26.1-11.7-26.1-26.2c0-14.4,11.7-26.1,26.1-26.1c14.4,0,26.1,11.7,26.1,26.1
			C91.2,104,79.5,115.7,65.1,115.7z M61.5,57.4L37.7,15.7L25,34.1l18.4,31.7C43.4,65.8,50.1,58.9,61.5,57.4z"/>
	</g>
</g>
<g>
	<path d="M52.3,92.6h2.8v-8.2c0-0.4,0-0.8,0-0.8h0c0,0-0.1,0.3-0.6,0.7l-1.2,1.2l-1.1-1.1l3-3h1.6v11.2h2.8v1.5h-7.3V92.6z"/>
	<path d="M61.7,88.2H67v1.5h-5.3V88.2z"/>
	<path d="M70.3,91.3c0,0,1.2,1.4,3.1,1.4c1.4,0,2.6-1,2.6-2.3c0-1.6-1.4-2.3-3-2.3h-0.9l-0.4-1l2.8-3.3c0.4-0.5,0.8-0.8,0.8-0.8v0
		c0,0-0.4,0.1-1.1,0.1h-4.3v-1.5h7.6v1.1l-3.5,4c1.7,0.2,3.7,1.3,3.7,3.7c0,2.2-1.7,4.1-4.3,4.1c-2.6,0-4.1-1.7-4.1-1.7L70.3,91.3z"
		/>
</g>
</svg>
