<?xml version="1.0" encoding="utf-8"?>
<!-- Generator: Adobe Illustrator 19.1.0, SVG Export Plug-In . SVG Version: 6.00 Build 0)  -->
<svg version="1.1" id="Capa_1" xmlns="http://www.w3.org/2000/svg" xmlns:xlink="http://www.w3.org/1999/xlink" x="0px" y="0px"
	 viewBox="0 0 130 130" style="enable-background:new 0 0 130 130;" xml:space="preserve">
<style type="text/css">
	.st0{fill:#575756;}
</style>
<g>
	<g>
		<path class="st0" d="M80.6,35.9l10.6-18.5H38.9l10.8,18.5H80.6z M61.5,59.6L37.7,17.9L25,36.3L43.4,68
			C43.4,68,50.1,61.1,61.5,59.6z M86.1,67.5l18.9-31.2L92.4,17.9L68.5,59.8C79,60.7,86.1,67.5,86.1,67.5z M65.1,60.6
			c-17.1,0-30.9,13.8-30.9,30.9c0,17.1,13.8,30.9,30.9,30.9c17.1,0,30.9-13.8,30.9-30.9C96,74.5,82.1,60.6,65.1,60.6z M65.1,117.9
			c-14.4,0-26.1-11.7-26.1-26.2c0-14.4,11.7-26.1,26.1-26.1c14.4,0,26.1,11.7,26.1,26.1C91.2,106.2,79.5,117.9,65.1,117.9z"/>
	</g>
</g>
<g>
	<path d="M47.2,95.4c0-4.5,6.2-5.2,6.2-8.2c0-1.3-1-2.1-2.3-2.1c-1.7,0-2.6,1.6-2.6,1.6l-1.3-0.9c0,0,1.2-2.4,4-2.4
		c2.3,0,4,1.5,4,3.7c0,4.2-6.1,4.8-6.1,7.7h6.3v1.5h-8.2C47.2,96,47.2,95.7,47.2,95.4z"/>
	<path d="M58.1,90.4h5.3V92h-5.3V90.4z"/>
	<path d="M66,94.8h2.8v-8.2c0-0.4,0-0.8,0-0.8h0c0,0-0.1,0.3-0.6,0.7L67,87.7l-1.1-1.1l3-3h1.6v11.2h2.8v1.5H66V94.8z"/>
	<path d="M75.7,93.5c0,0,1,1.4,2.8,1.4c1.5,0,2.8-1,2.8-2.6c0-1.5-1.3-2.6-2.9-2.6c-1.2,0-2.1,0.6-2.1,0.6l-1-0.4l0.6-6.3h6.4v1.5
		h-4.9L77,87.8c0,0.4-0.1,0.7-0.1,0.7h0c0,0,0.7-0.4,1.6-0.4c2.7,0,4.4,1.9,4.4,4.1c0,2.5-1.9,4.3-4.5,4.3c-2.6,0-3.9-1.8-3.9-1.8
		L75.7,93.5z"/>
</g>
</svg>
