<?xml version="1.0" encoding="utf-8"?>
<!-- Generator: Adobe Illustrator 19.1.0, SVG Export Plug-In . SVG Version: 6.00 Build 0)  -->
<svg version="1.1" id="Capa_1" xmlns="http://www.w3.org/2000/svg" xmlns:xlink="http://www.w3.org/1999/xlink" x="0px" y="0px"
	 viewBox="0 0 100 100" style="enable-background:new 0 0 100 100;" xml:space="preserve">
<style type="text/css">
	.st0{fill-rule:evenodd;clip-rule:evenodd;fill:#575756;}
</style>
<g>
	<g>
		<path class="st0" d="M4,95.6h92v-3.4H4V95.6z M5.4,40.4c0,0,89,0,89.1,0c2.2-0.9,2.1-3,0-4.3c-2-1.3-44.7-32.1-44.7-32.1
			S7.6,34.7,5.4,36.1C3.3,37.4,3.2,39.4,5.4,40.4z M49.9,19.1c3.6,0,6.4,2.9,6.4,6.4c0,3.6-2.9,6.4-6.4,6.4c-3.6,0-6.4-2.9-6.4-6.4
			C43.5,22,46.4,19.1,49.9,19.1z M7.7,88.2h84.7v-3.6H7.7V88.2z M26,80.9V48h3.6V44H11.2v3.7h3.6v33.2H26z M85,80.9v-33h3.6v-3.6
			H70.2v3.5h3.6v33.2H85z M55.6,80.9v-33h3.6v-3.6H40.8v3.5h3.6v33.2H55.6z"/>
	</g>
</g>
</svg>
